<svg xmlns="http://www.w3.org/2000/svg" width="650" height="29" viewBox="0 0 650 29"><path d="M0 19s14.494 1.92 23 2 19.527-.185 26-2 20.08-6.13 26-8 14.556-4.625 20-6a99.563 99.563 0 0 1 22-3c9.3-.255 25.582 3.528 34 6s13.192 4.278 24 7 12.208 3.653 21 5 12.647.787 19 1 34.58.593 41 0 24.343-1.514 31-3 25.528-4.713 34-8 17.082-4.82 22-6a90.975 90.975 0 0 1 23-3c10.193.074 24.78 1.963 36 8s17.447 7.893 28 12 17.4 7.074 30 7 23.088-3.574 34-8 22.66-9.773 32-12 17.5-1.907 25-2 22.416 1.9 33 5 26.083 3.963 32 4 19.194-1.486 24-2 8.46-1.083 10-1" fill="transparent" stroke="#fa980d" stroke-width="2"/></svg>